<svg width="44" height="44" viewBox="0 0 44 44" fill="none" xmlns="http://www.w3.org/2000/svg">
<g filter="url(#filter0_b_106_1471)">
<circle cx="22" cy="22" r="22"/>
</g>
<g clip-path="url(#clip0_106_1471)">
<path d="M23.41 21.9999L31.7 13.7099C31.8638 13.5186 31.9494 13.2726 31.9397 13.0209C31.93 12.7692 31.8256 12.5305 31.6475 12.3524C31.4694 12.1743 31.2307 12.07 30.979 12.0602C30.7274 12.0505 30.4813 12.1361 30.29 12.2999L22 20.5899L13.71 12.2899C13.5217 12.1016 13.2663 11.9958 13 11.9958C12.7337 11.9958 12.4783 12.1016 12.29 12.2899C12.1017 12.4782 11.9959 12.7336 11.9959 12.9999C11.9959 13.2662 12.1017 13.5216 12.29 13.7099L20.59 21.9999L12.29 30.2899C12.1853 30.3796 12.1003 30.4899 12.0402 30.614C11.9802 30.738 11.9465 30.8732 11.9412 31.0109C11.9359 31.1486 11.9591 31.2859 12.0093 31.4143C12.0596 31.5426 12.1359 31.6591 12.2333 31.7566C12.3308 31.854 12.4473 31.9303 12.5757 31.9806C12.704 32.0309 12.8413 32.0541 12.979 32.0487C13.1167 32.0434 13.2519 32.0097 13.3759 31.9497C13.5 31.8896 13.6103 31.8046 13.7 31.6999L22 23.4099L30.29 31.6999C30.4813 31.8638 30.7274 31.9494 30.979 31.9397C31.2307 31.9299 31.4694 31.8256 31.6475 31.6475C31.8256 31.4694 31.93 31.2307 31.9397 30.979C31.9494 30.7273 31.8638 30.4812 31.7 30.2899L23.41 21.9999Z" fill="black"/>
</g>
<defs>
<filter id="filter0_b_106_1471" x="-4" y="-4" width="52" height="52" filterUnits="userSpaceOnUse" color-interpolation-filters="sRGB">
<feFlood flood-opacity="0" result="BackgroundImageFix"/>
<feGaussianBlur in="BackgroundImageFix" stdDeviation="2"/>
<feComposite in2="SourceAlpha" operator="in" result="effect1_backgroundBlur_106_1471"/>
<feBlend mode="normal" in="SourceGraphic" in2="effect1_backgroundBlur_106_1471" result="shape"/>
</filter>
<clipPath id="clip0_106_1471">
<rect width="36" height="36" fill="white" transform="translate(4 4)"/>
</clipPath>
</defs>
</svg>
