<svg width="52" height="52" viewBox="0 0 52 52" xmlns="http://www.w3.org/2000/svg">
<g filter="url(#filter0_d_106_2260)">
<g filter="url(#filter1_b_106_2260)">
<circle cx="26" cy="22" r="22"/>
</g>
<g clip-path="url(#clip0_106_2260)">
<path d="M27.41 21.9999L35.7 13.7099C35.8638 13.5186 35.9494 13.2726 35.9397 13.0209C35.93 12.7692 35.8257 12.5305 35.6476 12.3524C35.4695 12.1743 35.2307 12.07 34.9791 12.0602C34.7274 12.0505 34.4813 12.1361 34.29 12.2999L26 20.5899L17.71 12.2899C17.5217 12.1016 17.2663 11.9958 17 11.9958C16.7337 11.9958 16.4783 12.1016 16.29 12.2899C16.1017 12.4782 15.9959 12.7336 15.9959 12.9999C15.9959 13.2662 16.1017 13.5216 16.29 13.7099L24.59 21.9999L16.29 30.2899C16.1853 30.3796 16.1003 30.4899 16.0403 30.614C15.9803 30.738 15.9465 30.8732 15.9412 31.0109C15.9359 31.1486 15.9591 31.2859 16.0094 31.4143C16.0596 31.5426 16.1359 31.6591 16.2334 31.7566C16.3308 31.854 16.4474 31.9303 16.5757 31.9806C16.704 32.0309 16.8413 32.0541 16.9791 32.0487C17.1168 32.0434 17.2519 32.0097 17.376 31.9497C17.5 31.8896 17.6104 31.8046 17.7 31.6999L26 23.4099L34.29 31.6999C34.4813 31.8638 34.7274 31.9494 34.9791 31.9397C35.2307 31.9299 35.4695 31.8256 35.6476 31.6475C35.8257 31.4694 35.93 31.2307 35.9397 30.979C35.9494 30.7273 35.8638 30.4812 35.7 30.2899L27.41 21.9999Z" fill="black"/>
</g>
</g>
<defs>
<filter id="filter0_d_106_2260" x="0" y="0" width="52" height="52" filterUnits="userSpaceOnUse" color-interpolation-filters="sRGB">
<feFlood flood-opacity="0" result="BackgroundImageFix"/>
<feColorMatrix in="SourceAlpha" type="matrix" values="0 0 0 0 0 0 0 0 0 0 0 0 0 0 0 0 0 0 127 0" result="hardAlpha"/>
<feOffset dy="4"/>
<feGaussianBlur stdDeviation="2"/>
<feComposite in2="hardAlpha" operator="out"/>
<feColorMatrix type="matrix" values="0 0 0 0 0 0 0 0 0 0 0 0 0 0 0 0 0 0 0.25 0"/>
<feBlend mode="normal" in2="BackgroundImageFix" result="effect1_dropShadow_106_2260"/>
<feBlend mode="normal" in="SourceGraphic" in2="effect1_dropShadow_106_2260" result="shape"/>
</filter>
<filter id="filter1_b_106_2260" x="0" y="-4" width="52" height="52" filterUnits="userSpaceOnUse" color-interpolation-filters="sRGB">
<feFlood flood-opacity="0" result="BackgroundImageFix"/>
<feGaussianBlur in="BackgroundImageFix" stdDeviation="2"/>
<feComposite in2="SourceAlpha" operator="in" result="effect1_backgroundBlur_106_2260"/>
<feBlend mode="normal" in="SourceGraphic" in2="effect1_backgroundBlur_106_2260" result="shape"/>
</filter>
<clipPath id="clip0_106_2260">
<rect width="36" height="36" fill="white" transform="translate(8 4)"/>
</clipPath>
</defs>
</svg>
